<svg width="186.000000" height="26.000000" viewBox="0 0 186 26" fill="none" xmlns="http://www.w3.org/2000/svg" xmlns:xlink="http://www.w3.org/1999/xlink">
	<desc>
			Created with Pixso.
	</desc>
	<defs/>
	<rect id="Rectangle" rx="2.000000" width="115.000000" height="4.000000" fill="#ADB5BE" fill-opacity="1.000000"/>
	<rect id="Rectangle" rx="2.000000" width="115.000000" height="4.000000" stroke="#979797" stroke-opacity="0" stroke-width="0.000000"/>
	<rect id="Rectangle" x="121.000000" rx="2.000000" width="22.000000" height="4.000000" fill="#ADB5BE" fill-opacity="1.000000"/>
	<rect id="Rectangle" x="121.000000" rx="2.000000" width="22.000000" height="4.000000" stroke="#979797" stroke-opacity="0" stroke-width="0.000000"/>
	<rect id="Rectangle" x="149.000000" rx="2.000000" width="22.000000" height="4.000000" fill="#ADB5BE" fill-opacity="1.000000"/>
	<rect id="Rectangle" x="149.000000" rx="2.000000" width="22.000000" height="4.000000" stroke="#979797" stroke-opacity="0" stroke-width="0.000000"/>
	<rect id="Rectangle" x="177.000000" rx="2.000000" width="9.000000" height="4.000000" fill="#ADB5BE" fill-opacity="1.000000"/>
	<rect id="Rectangle" x="177.000000" rx="2.000000" width="9.000000" height="4.000000" stroke="#979797" stroke-opacity="0" stroke-width="0.000000"/>
	<rect id="Rectangle" rx="2.000000" width="115.000000" height="4.000000" transform="matrix(-1 0 0 1 186 22)" fill="#ADB5BE" fill-opacity="1.000000"/>
	<rect id="Rectangle" rx="2.000000" width="115.000000" height="4.000000" transform="matrix(-1 0 0 1 186 22)" stroke="#979797" stroke-opacity="0" stroke-width="0.000000"/>
	<rect id="Rectangle" rx="2.000000" width="22.000000" height="4.000000" transform="matrix(-1 0 0 1 65 22)" fill="#ADB5BE" fill-opacity="1.000000"/>
	<rect id="Rectangle" rx="2.000000" width="22.000000" height="4.000000" transform="matrix(-1 0 0 1 65 22)" stroke="#979797" stroke-opacity="0" stroke-width="0.000000"/>
	<rect id="Rectangle" rx="2.000000" width="22.000000" height="4.000000" transform="matrix(-1 0 0 1 37 22)" fill="#ADB5BE" fill-opacity="1.000000"/>
	<rect id="Rectangle" rx="2.000000" width="22.000000" height="4.000000" transform="matrix(-1 0 0 1 37 22)" stroke="#979797" stroke-opacity="0" stroke-width="0.000000"/>
	<rect id="Rectangle" rx="2.000000" width="9.000000" height="4.000000" transform="matrix(-1 0 0 1 9 22)" fill="#ADB5BE" fill-opacity="1.000000"/>
	<rect id="Rectangle" rx="2.000000" width="9.000000" height="4.000000" transform="matrix(-1 0 0 1 9 22)" stroke="#979797" stroke-opacity="0" stroke-width="0.000000"/>
	<rect id="Rectangle" x="42.000000" y="11.000000" rx="2.000000" width="60.000000" height="4.000000" fill="#ADB5BE" fill-opacity="1.000000"/>
	<rect id="Rectangle" x="42.000000" y="11.000000" rx="2.000000" width="60.000000" height="4.000000" stroke="#979797" stroke-opacity="0" stroke-width="0.000000"/>
	<rect id="Rectangle" x="14.000000" y="11.000000" rx="2.000000" width="22.000000" height="4.000000" fill="#ADB5BE" fill-opacity="1.000000"/>
	<rect id="Rectangle" x="14.000000" y="11.000000" rx="2.000000" width="22.000000" height="4.000000" stroke="#979797" stroke-opacity="0" stroke-width="0.000000"/>
	<rect id="Rectangle" x="108.000000" y="11.000000" rx="2.000000" width="46.000000" height="4.000000" fill="#ADB5BE" fill-opacity="1.000000"/>
	<rect id="Rectangle" x="108.000000" y="11.000000" rx="2.000000" width="46.000000" height="4.000000" stroke="#979797" stroke-opacity="0" stroke-width="0.000000"/>
	<rect id="Rectangle" x="160.000000" y="11.000000" rx="2.000000" width="9.000000" height="4.000000" fill="#ADB5BE" fill-opacity="1.000000"/>
	<rect id="Rectangle" x="160.000000" y="11.000000" rx="2.000000" width="9.000000" height="4.000000" stroke="#979797" stroke-opacity="0" stroke-width="0.000000"/>
</svg>
